<svg width="559" height="737" viewBox="0 0 559 737" fill="none" xmlns="http://www.w3.org/2000/svg">
<g clip-path="url(#clip0_1_3)">
<path d="M271.891 101.537L272.516 102.914L273.293 103.364L273.551 104.922C273.77 103.303 273.772 102.734 274.667 101.367C274.784 120.364 287.01 147.642 300.982 160.768C314.189 173.175 334.179 183.46 350.557 191.34C409.527 219.712 445.783 252.814 470.924 314.472C472.428 317.875 475.141 325.206 475.689 328.795C479.365 339.72 480.9 346.451 482.369 357.908L481.446 358.865C473.49 328.328 463.443 309.595 434.279 295.561C395.876 287.15 384.533 308.447 363.13 334.701C362.257 337.454 369.343 352.983 370.966 356.979C382.835 386.432 394.993 415.769 407.44 444.983C414.613 461.738 427.558 489.923 432.884 507.019C429.44 503.454 426.03 499.777 422.547 496.267C410.502 484.132 396.492 473.754 384.942 461.164C383.949 460.082 383.115 456.612 382.741 455.171L381.568 457.687L380.376 458.166C376.627 456.373 372.578 453.551 369.028 451.283C321.512 420.932 268.228 413.829 214.876 432.809C205.434 436.272 196.258 440.422 187.42 445.221C182.977 447.68 168.342 458.203 165.052 458.897L164.98 459.949L165.997 459.574L165.454 460.2L166.178 459.793C165.364 460.766 165.458 461.042 164.37 461.522L163.38 459.908C162.41 461.154 162.776 460.518 162.221 461.777L161.328 462.028C159.404 464.114 148.567 473.52 145.716 475.953C138.15 482.415 121.949 500.276 114.848 504.735C122.008 490.816 185.124 338.272 185.002 335.77C176.443 329.149 164.45 308.937 153.773 301.747C141.236 293.303 128.172 293.195 113.839 295.467C110.73 296.191 107.797 297.482 104.927 298.851C79.976 313.567 69.786 337.646 63.612 364.7C62.634 356.18 69.188 330.26 72.361 321.517C92.61 265.719 129.039 224.64 181.867 198.262C211.324 182.882 245.439 171.627 261.375 139.897C266.185 130.319 273.006 112.158 271.891 101.537Z" fill="#141418"/>
<path d="M231.261 222.759C236.731 226.73 241.794 231.463 247.323 235.213L248.418 237.021C258.261 247.472 263.654 254.436 272.365 265.673C257.455 285.304 242.296 325.649 232.535 348.621C224.338 367.915 212.747 394.373 205.88 414.002L207.549 415.112C216.254 409.885 224.548 403.518 232.96 397.85C247.012 388.382 259.875 379.08 273.084 368.489C274.202 367.47 274.204 367.499 275.008 366.336L275.313 366.345C279.616 371.974 333.035 408.726 339.692 411.816C333.048 397.685 327.848 382.595 321.71 368.226C307.16 334.163 294.571 296.923 274.96 265.373C279.968 260.038 294.762 240.725 300.019 239.349L300.981 238.965C300.989 237.065 300.978 236.828 302.889 235.08C307.118 231.211 312.49 226.265 317.094 222.945C326.905 250.129 337.535 277.012 348.971 303.554C351.732 310.074 358.984 327.956 362.185 332.904C362.595 333.908 362.471 333.888 363.13 334.701C362.257 337.453 369.343 352.983 370.966 356.979C382.835 386.432 394.993 415.769 407.44 444.983C414.613 461.738 427.558 489.923 432.884 507.019C429.44 503.454 426.03 499.777 422.547 496.267C410.502 484.132 396.492 473.754 384.942 461.164C383.949 460.082 383.115 456.612 382.741 455.171L381.568 457.687L380.376 458.165C376.627 456.373 372.578 453.551 369.028 451.283C321.512 420.932 268.228 413.829 214.876 432.809C205.434 436.272 196.258 440.422 187.42 445.221C182.977 447.68 168.342 458.203 165.052 458.897L164.98 459.949L165.997 459.574L165.454 460.2L166.178 459.793C165.364 460.766 165.458 461.042 164.37 461.521L163.38 459.908C162.41 461.154 162.776 460.517 162.221 461.777L161.328 462.028C159.404 464.114 148.567 473.519 145.716 475.953C138.15 482.415 121.949 500.276 114.848 504.735C122.008 490.816 185.124 338.272 185.002 335.77C176.443 329.149 164.45 308.937 153.773 301.747C141.236 293.302 128.172 293.195 113.839 295.467L114.112 294.008C128.684 288.281 149.937 293.25 160.358 304.382C168.36 312.928 179.578 324.977 186.094 334.593C191.064 320.217 200.042 302.228 205.965 287.657C214.748 266.049 222.722 244.427 231.261 222.759Z" fill="url(#paint0_linear_1_3)"/>
<path d="M231.261 222.759C236.731 226.73 241.794 231.463 247.323 235.213L248.418 237.021C245.215 243.928 224.227 298.294 223.802 304.175C224.638 306.214 226.064 306.771 227.97 307.98C227.685 308.17 225.045 309.929 225.045 309.929C223.659 313.691 224.576 315.84 219.97 313.803C216.347 316.042 196.144 377.867 192.245 386.66C191.317 388.754 194.951 391.269 196.498 392.326L196.346 393.117L195.112 393.374C193.835 393.649 193.587 393.665 192.478 394.413L192.279 397.51L191.326 398.241L188.689 397.21C187.139 398.294 167.491 452.168 165.052 458.897L164.98 459.949L165.997 459.574L165.454 460.2L166.178 459.793C165.364 460.766 165.458 461.042 164.37 461.521L163.38 459.908C162.41 461.154 162.776 460.517 162.221 461.777L161.328 462.028C159.404 464.114 148.567 473.519 145.716 475.953C138.15 482.415 121.949 500.276 114.848 504.735C122.008 490.816 185.124 338.272 185.002 335.77C176.443 329.149 164.45 308.937 153.773 301.747C141.236 293.302 128.172 293.195 113.839 295.467L114.112 294.008C128.684 288.281 149.937 293.25 160.358 304.382C168.36 312.928 179.578 324.977 186.094 334.593C191.064 320.217 200.042 302.228 205.965 287.657C214.748 266.049 222.722 244.427 231.261 222.759Z" fill="#3A1E79"/>
<path d="M247.323 235.213L248.418 237.021C245.215 243.928 224.227 298.294 223.802 304.176C224.638 306.214 226.064 306.771 227.97 307.98C227.685 308.17 225.044 309.929 225.044 309.929C223.659 313.691 224.576 315.84 219.97 313.803C216.347 316.042 196.144 377.867 192.245 386.66C191.317 388.754 194.951 391.269 196.498 392.326L196.346 393.118L195.112 393.374C193.835 393.649 193.587 393.665 192.478 394.413L192.279 397.51L191.326 398.241L188.689 397.21C187.139 398.294 167.491 452.168 165.052 458.897L164.98 459.949L165.997 459.574L165.454 460.2L166.178 459.793C165.364 460.766 165.458 461.042 164.37 461.521L163.38 459.908C162.41 461.154 162.776 460.517 162.221 461.777L161.328 462.028C168.746 439.804 178.821 418.953 185.567 395.628C184.284 394.478 183 393.495 181.646 392.437C182.937 389.053 185.425 386.972 189.008 386.778C191.773 384.342 214.67 319.296 217.807 310.411C216.212 309.027 214.771 308.275 214.176 306.58C216.056 306.398 216.343 306.35 218.154 305.827C225.058 298.766 240.473 249.251 247.323 235.213Z" fill="#050407"/>
<path d="M317.094 222.945C326.905 250.129 337.535 277.012 348.971 303.554C351.732 310.074 358.984 327.956 362.185 332.904C362.595 333.908 362.471 333.888 363.13 334.701C362.257 337.454 369.343 352.983 370.966 356.979C382.835 386.432 394.993 415.769 407.44 444.983C414.613 461.738 427.558 489.923 432.884 507.019C429.44 503.454 426.03 499.777 422.547 496.267C410.502 484.132 396.492 473.754 384.942 461.164C383.949 460.082 383.115 456.612 382.741 455.171C375.939 441.123 367.097 413.974 361.339 398.705C360.513 396.514 362.094 394.45 363.412 392.667L363.856 392.078L363.673 391.274C362.264 390.349 362.078 390.281 360.933 389.072C360.937 387.009 361.247 387.513 360.406 385.925C357.835 386.504 359.014 386.606 356.718 385.953C351.642 380.003 334.987 324.171 329.837 314.259C327.809 310.355 329.774 309.419 331.505 306.33C330.021 305.599 325.055 302.613 324.373 301.105C315.789 282.117 310.808 257.123 300.981 238.965C300.989 237.065 300.978 236.828 302.889 235.08C307.118 231.211 312.49 226.265 317.094 222.945Z" fill="#2F1D64"/>
<path d="M273.084 368.489C274.997 369.299 296.885 385.84 299.712 388.217C312.535 398.997 336.307 410.141 346.103 422.59L346.975 423.681C292.271 403.495 255.789 401.456 200.759 423.915C202.789 420.223 203.94 417.441 207.549 415.112C216.254 409.885 224.548 403.518 232.96 397.85C247.012 388.382 259.875 379.08 273.084 368.489Z" fill="#141418"/>
<path d="M300.019 239.349L300.981 238.965C310.808 257.123 315.789 282.117 324.373 301.105C325.055 302.613 330.021 305.599 331.505 306.33C329.774 309.419 327.809 310.355 329.837 314.259C334.987 324.171 351.642 380.003 356.718 385.953C359.014 386.606 357.835 386.504 360.406 385.925C361.247 387.513 360.937 387.009 360.933 389.072C362.078 390.281 362.265 390.349 363.673 391.274L363.856 392.078L363.412 392.667C362.094 394.45 360.513 396.514 361.339 398.705C367.097 413.974 375.939 441.123 382.741 455.171L381.568 457.687C379.381 451.102 359.842 399.115 357.978 397.514C356.782 398.015 356.394 398.15 355.138 398.473L354.023 397.813C353.769 395.905 353.81 395.53 353.059 393.722L349.531 392.626C349.225 390.953 353.461 390.44 353.473 388.902C353.528 380.888 328.43 316.077 326.873 313.898C324.832 313.048 325.226 313.473 322.373 314.615C320.692 313.694 321.459 312.184 320.685 310.238C319.669 309.363 318.837 308.645 318.188 308.087L318.28 307.147C320.177 305.959 321.543 304.969 323.343 303.631C316.8 286.36 310.831 268.855 304.285 251.58C302.817 247.708 301.017 243.312 300.019 239.349Z" fill="#050407"/>
<path d="M271.891 101.537L272.516 102.914L273.293 103.364L273.551 104.922C273.77 103.303 273.772 102.734 274.667 101.367C274.784 120.364 287.01 147.642 300.982 160.768C314.189 173.175 334.179 183.46 350.557 191.34C409.527 219.712 445.783 252.814 470.924 314.472L469.159 314.328C453.705 272.841 423.271 236.328 386.203 212.575C378.154 207.418 368.95 202.444 360.517 197.85C359.818 197.593 359.047 197.281 358.325 197.09C356.65 197.937 356.575 198.082 354.735 198.166C323.444 210.3 293.436 235.562 273.863 262.613C267.557 255.47 262.082 247.282 255.433 240.375C236.166 220.36 214.287 205.25 187.709 197.224L184.722 198.501L183.043 199.231L181.867 198.262C211.324 182.882 245.439 171.627 261.375 139.897C266.185 130.319 273.006 112.158 271.891 101.537Z" fill="#3A1E79"/>
<path d="M271.891 101.537L272.516 102.914L273.293 103.364L273.551 104.922C273.77 103.303 273.772 102.734 274.667 101.367C274.784 120.364 287.01 147.642 300.982 160.768C314.189 173.175 334.179 183.46 350.557 191.34C409.527 219.712 445.783 252.814 470.924 314.472L469.159 314.328C453.705 272.841 423.271 236.328 386.203 212.575C378.154 207.418 368.95 202.444 360.517 197.85C359.818 197.593 359.047 197.281 358.325 197.09C342.97 188.732 325.561 181.064 311.338 170.902C292.124 157.19 279.178 136.376 275.371 113.079L274.454 109.752L273.644 109.315C272.564 111.377 272.46 111.835 271.842 114.112C266.173 140.373 252.01 160.901 229.366 175.193C215.655 183.847 201.182 189.35 187.709 197.224L184.722 198.501L183.043 199.231L181.867 198.262C211.324 182.882 245.439 171.627 261.375 139.897C266.185 130.319 273.006 112.158 271.891 101.537Z" fill="#C89260"/>
<path d="M271.844 156.89C271.817 156.009 271.497 151.749 272.164 151.193C273.16 151.345 273.262 154.799 273.386 155.59C273.898 158.797 274.638 162.051 275.212 165.256C276.119 170.925 276.377 175.571 277.698 181.303C284.039 181.399 285.63 181.025 291.792 179.819L290.623 181.796C284.081 192.645 287.645 190.763 297.106 192.573C300.477 192.609 306.133 193.306 309.533 193.693C325.11 195.465 298.136 197.483 296.622 197.599C291.97 198.203 287.46 199.075 282.882 199.701C285.838 203.962 288.472 208.336 291.534 212.64C290.051 212.253 281.157 210.094 280.666 209.459C280.896 207.463 280.72 207.567 279.919 205.895L279.248 205.945C276.725 206.088 276.446 215.627 276.073 218.335C275.36 223.549 274.759 228.779 274.269 234.019C273.514 233.852 272.757 233.694 271.998 233.546C271.379 226.97 269.495 220.628 268.094 214.224C266.885 208.702 267.412 208.224 261.736 210.523C259.847 210.105 259.854 210.036 258.134 209.067C258.494 208.975 259.115 208.839 259.459 208.676C258.393 206.822 262.735 200.882 260.795 200.201C255.057 198.185 239.153 195.988 233.515 194.542C240.44 192.934 250.315 192.569 257.001 190.385C259.358 188.606 257.922 183.899 256.238 182.03C250.463 175.625 264.272 180.542 266.423 181.162L267.562 181.468C267.849 179.997 268.157 178.533 268.493 177.071L269.082 174.237C270.255 168.545 271.531 162.698 271.844 156.89Z" fill="#EDC488"/>
<path d="M271.844 156.89C271.817 156.009 271.497 151.749 272.164 151.193C273.16 151.345 273.262 154.799 273.386 155.59C273.898 158.797 274.638 162.051 275.212 165.256C275.147 167.452 275.132 167.365 273.857 169.369L272.324 170.191C272.113 176.064 270.726 183.647 270.071 189.68C265.545 185.605 262.914 183.429 257.819 180.1C260.48 184.048 263.568 188.361 266.331 192.298C262.81 192.85 256.178 193.528 252.376 193.903C251.474 194.577 251.396 194.486 251.167 195.493C252.477 195.717 265.765 198.238 266.395 198.797C265.507 200.184 264.892 200.984 263.872 202.281C262.37 204.277 260.986 206.579 259.459 208.676C258.393 206.822 262.735 200.882 260.795 200.201C255.057 198.185 239.153 195.988 233.515 194.542C240.44 192.934 250.315 192.569 257.001 190.385C259.358 188.606 257.922 183.899 256.238 182.03C250.463 175.625 264.272 180.542 266.423 181.162L267.562 181.468C267.849 179.997 268.157 178.533 268.493 177.071L269.082 174.237C270.255 168.545 271.531 162.698 271.844 156.89Z" fill="#050407"/>
<path d="M271.843 156.89C271.817 156.009 271.497 151.749 272.163 151.193C273.16 151.345 273.262 154.799 273.385 155.59C272.365 155.681 272.374 156.059 271.843 156.89Z" fill="#2B2045"/>
<path d="M251.167 195.493C250.487 195.487 248.081 195.634 247.744 194.776C248.327 194.049 251.516 193.94 252.376 193.903C251.474 194.577 251.396 194.486 251.167 195.493Z" fill="#A6875B"/>
<path d="M272.324 170.191C272.375 169.8 272.509 167.66 273.198 167.732C273.664 168.068 273.728 168.865 273.857 169.369L272.324 170.191Z" fill="#716046"/>
<path d="M269.517 201.375C271.012 202.801 272.034 213.685 272.487 216.529L273.66 216.539C274.029 211.589 275.266 206.214 275.892 201.152C277.542 202.346 279.126 203.629 280.638 204.992L279.919 205.895L279.248 205.945C276.725 206.088 276.446 215.627 276.073 218.335C275.36 223.549 274.759 228.779 274.269 234.019C273.514 233.852 272.757 233.694 271.999 233.546C271.379 226.97 269.495 220.628 268.094 214.224C266.885 208.702 267.412 208.224 261.736 210.523C259.847 210.105 259.854 210.036 258.134 209.067C258.494 208.975 259.115 208.839 259.459 208.676C260.986 206.579 262.37 204.277 263.872 202.281L265.702 204.105C267.17 203.004 267.955 202.352 269.517 201.375Z" fill="url(#paint1_linear_1_3)"/>
<path d="M263.872 202.281L265.702 204.105C262.967 206.667 262.724 207.452 259.459 208.676C260.986 206.579 262.37 204.277 263.872 202.281Z" fill="#EDC488"/>
<path d="M272.487 216.529L273.66 216.539C273.666 217.233 273.889 220.431 273.204 220.877C272.141 220.405 272.437 217.361 272.487 216.529Z" fill="#716046"/>
<path d="M297.106 192.573C300.477 192.609 306.133 193.306 309.533 193.693C325.11 195.465 298.136 197.483 296.622 197.599C291.97 198.203 287.46 199.075 282.882 199.701C285.838 203.962 288.472 208.336 291.534 212.64C290.051 212.253 281.157 210.094 280.666 209.459C280.896 207.463 280.72 207.567 279.919 205.895L280.638 204.992C283.131 206.704 285.328 207.992 287.921 209.536C284.728 204.925 282.654 202.686 279.218 198.417C284.794 197.806 289.41 196.597 294.972 196.002C294.623 194.061 293.786 194.595 291.807 193.855L290.785 193.658C293.307 193.023 294.592 192.845 297.106 192.573Z" fill="#050407"/>
<path d="M291.807 193.855C293.999 193.985 297.408 193.964 299.482 194.713C299.581 194.748 299.562 194.919 299.527 194.987C299.188 195.642 297.924 195.62 297.335 195.687C296.511 195.779 295.753 195.899 294.972 196.002C294.623 194.061 293.786 194.595 291.807 193.855Z" fill="#C89260"/>
<path d="M275.212 165.256C276.119 170.925 276.377 175.571 277.698 181.303C284.039 181.399 285.63 181.025 291.792 179.819L290.623 181.796C284.081 192.645 287.645 190.763 297.106 192.573C294.592 192.845 293.307 193.023 290.785 193.658C288.252 193.65 285.861 193.088 283.18 192.948C283.093 190.519 283.218 190.159 282.263 188.074C283.562 186.311 285.318 184.777 286.496 182.918C286.658 182.661 286.671 181.963 286.326 182.065C282.74 183.126 278.373 187.491 275.541 189.869C275.051 184.271 273.729 174.496 273.857 169.369C275.131 167.365 275.147 167.452 275.212 165.256Z" fill="#141418"/>
<path d="M283.18 192.948C277.806 191.876 277.834 192.258 282.263 188.074C283.218 190.159 283.093 190.519 283.18 192.948Z" fill="#050407"/>
<path d="M261.736 210.523C257.177 212.821 249.135 215.813 255.555 210.807C256.712 209.903 255.74 208.865 258.134 209.067C259.854 210.036 259.847 210.105 261.736 210.523Z" fill="#050407"/>
<path d="M271.998 233.546C272.757 233.694 273.514 233.852 274.269 234.019C274.354 240.3 272.99 236.525 271.998 233.546Z" fill="#151124"/>
<path d="M184.722 198.501C188.582 200.765 194.662 202.497 199.116 204.251C206.85 207.293 211.976 210.036 219.054 214.272L221.122 215.569L221.178 216.414C218.096 217.397 206.768 218.552 202.941 219.093C157.859 232.787 142.643 243.123 115.92 282.591C115.169 285.468 109.718 293.156 109.862 294.822C110.3 295.363 113.351 294.211 114.112 294.008L113.839 295.467C110.73 296.191 107.797 297.482 104.927 298.85C79.976 313.567 69.786 337.646 63.612 364.7C62.634 356.18 69.188 330.26 72.361 321.517C92.61 265.719 129.039 224.64 181.867 198.262L183.043 199.231L184.722 198.501Z" fill="#3A1E79"/>
<path d="M181.867 198.262L183.043 199.231C143.084 221.006 112.946 245.415 90.465 285.778C85.291 295.066 78.254 307.447 75.466 317.804C74.918 321.15 73.635 324.187 76.057 326.646C81.38 315.403 93.413 303.858 104.533 298.116L104.927 298.85C79.976 313.567 69.786 337.646 63.612 364.7C62.634 356.18 69.188 330.26 72.361 321.517C92.61 265.719 129.039 224.64 181.867 198.262Z" fill="#8B6045"/>
<path d="M75.466 317.804C74.918 321.15 73.635 324.187 76.057 326.646C75.496 327.84 72.92 333.678 71.722 333.63C69.455 332.146 74.574 319.929 75.466 317.804Z" fill="#493271"/>
<path d="M104.533 298.116C104.704 297.962 105.329 297.353 105.423 297.319C109.341 295.908 113.2 283.341 115.92 282.591C115.169 285.468 109.718 293.156 109.862 294.822C110.3 295.363 113.351 294.211 114.112 294.008L113.839 295.467C110.73 296.191 107.797 297.482 104.927 298.85L104.533 298.116Z" fill="#624F72"/>
<path d="M358.325 197.09C359.047 197.281 359.818 197.593 360.517 197.85C368.95 202.444 378.154 207.418 386.202 212.575C423.271 236.328 453.705 272.841 469.159 314.328L470.924 314.472C472.428 317.875 475.141 325.206 475.689 328.795C479.365 339.72 480.9 346.451 482.369 357.908L481.446 358.864C473.49 328.328 463.443 309.595 434.279 295.561L434.595 294.436L435.463 293.297C435.196 291.635 434.905 290.505 434.161 288.951C419.64 258.698 393.447 236.311 362.911 224.257C362.296 224.199 350.488 220.63 348.675 220.194C340.629 218.258 333.808 217.356 325.613 216.28C335.711 210.44 346.078 204.42 356.914 200.128C356.194 199.468 355.467 198.814 354.735 198.166C356.575 198.082 356.65 197.937 358.325 197.09Z" fill="#2F1D64"/>
<path d="M362.911 224.257C368.119 224.26 384.979 233.947 389.7 237.011C409.583 249.917 430.976 272.802 437.902 295.862C453.601 304.221 459.911 310.033 469.888 324.834C471.365 324.092 471.53 324.129 472.581 322.923C471.674 320.408 470.234 316.74 469.159 314.328L470.924 314.472C472.428 317.875 475.141 325.206 475.689 328.795C479.365 339.72 480.9 346.451 482.369 357.908L481.446 358.864C473.49 328.328 463.443 309.595 434.279 295.561L434.595 294.436L435.463 293.297C435.196 291.635 434.905 290.505 434.161 288.951C419.641 258.698 393.447 236.311 362.911 224.257Z" fill="#DAAA73"/>
<path d="M469.159 314.328L470.924 314.472C472.428 317.875 475.141 325.206 475.689 328.795C475.459 331.058 476.617 335.575 476.256 335.987C476.077 336.053 476.186 336.037 475.915 336.002C475.398 335.487 473.673 331.502 473.512 330.812C472.575 329.551 470.407 326.316 469.888 324.834C471.365 324.092 471.53 324.129 472.581 322.923C471.674 320.408 470.234 316.74 469.159 314.328Z" fill="#A47D9B"/>
<path d="M472.581 322.923C473.533 326.732 475.092 327.275 473.512 330.812C472.575 329.551 470.407 326.316 469.888 324.834C471.365 324.092 471.53 324.129 472.581 322.923Z" fill="#493271"/>
<path d="M358.325 197.09C359.047 197.281 359.818 197.593 360.517 197.85L359.639 198.482C358.757 199.131 357.893 199.634 356.914 200.128C356.194 199.468 355.467 198.814 354.735 198.166C356.575 198.082 356.65 197.937 358.325 197.09Z" fill="#151124"/>
<path d="M362.185 332.904C368.434 322.97 380.031 309.071 388.819 301.42C400.473 291.274 420.195 289.304 434.595 294.436L434.279 295.561C395.876 287.15 384.533 308.447 363.13 334.701C362.471 333.888 362.595 333.908 362.185 332.904Z" fill="#3A1E79"/>
<path d="M271.515 366.901C272.007 367.852 272.112 367.804 273.084 368.489C259.875 379.08 247.012 388.382 232.96 397.85C224.548 403.518 216.254 409.885 207.549 415.112L205.88 414.002C207.89 412.82 210.707 410.561 212.647 409.091C231.642 394.697 253.542 382.491 271.515 366.901Z" fill="#3A1E79"/>
<path d="M252.991 304.678C253.268 304.61 254.018 304.334 254.319 304.492C254.537 304.827 255.026 307.404 255.293 308.178C256.457 325.011 259.964 354.15 274.138 365.309L275.008 366.336C274.204 367.499 274.202 367.47 273.084 368.489C272.112 367.804 272.007 367.852 271.515 366.9C268.242 361.999 263.719 356.99 261.496 351.608C255.634 337.421 252.122 319.944 252.991 304.678Z" fill="#3A1E79"/>
<path d="M290.516 297.312C298.811 314.865 289.761 353.556 275.313 366.345L275.008 366.336L274.138 365.309C290.372 341.258 292.393 326.682 290.516 297.312Z" fill="#3A1E79"/>
<path d="M252.991 304.678C253.372 303.58 253.561 302.301 254.406 301.434L254.261 301.75L254.883 300.958C256.632 300.435 255.38 307.126 255.293 308.178C255.026 307.404 254.537 304.827 254.319 304.492C254.018 304.334 253.268 304.61 252.991 304.678Z" fill="#3A1E79"/>
<path d="M364.498 264.105C365.72 264.694 365.139 265.903 366.51 266.565C369.237 267.884 366.481 268.32 365.369 269.697L364.658 270.584C364.45 270.636 364.242 270.688 364.034 270.741C363.983 270.636 363.788 270.54 363.834 270.336C364.228 268.626 361.308 268.333 361.507 267.38C362.988 265.743 362.523 267.515 364.498 264.105Z" fill="#F5BE70"/>
<path d="M183.04 264.846C182.997 264.838 186.366 267.525 186.338 267.714C185.912 268.252 184.364 268.842 183.574 269.391L182.957 269.826C182.796 269.974 182.633 270.124 182.472 270.273C182.144 270.106 179.701 267.726 179.551 267.499L179.609 267.244C181.094 265.938 180.456 268.113 183.04 264.846Z" fill="#F5BE70"/>
<path d="M162.694 464.764C170.121 460.356 177.454 455.048 185.109 450.514C205.118 438.609 227.226 430.655 250.235 427.086C298.627 419.864 344.865 436.394 383.459 464.889C390.529 485.641 397.65 503.367 409.887 521.842C413.852 527.827 418.521 532.735 422.523 538.517L422.934 539.118C409.717 555.994 379.462 568.871 359.586 577.266C376.412 558.075 385.326 539.216 378.74 513.932C373.707 494.607 367.817 484.873 354.424 470.753C338.549 489.478 319.887 514.161 304.538 533.705L305.119 534.388C315.541 546.435 330.959 552.567 346.667 553.928C356.027 554.738 363.688 552.361 371.449 552.513L371.834 553.258L372.944 552.842C369.882 555.309 288.878 569.332 277.148 572.308L276.929 572.9L276.158 572.816C275.659 571.794 275.257 571.008 274.691 570.023C272.54 569.777 271.936 569.861 270.114 568.641C266.695 569.803 209.363 557.886 201.467 555.951C199.034 556.357 198.169 555.547 196.391 554.146C189.418 554.022 173.232 551.366 169.374 552.071C170.08 552.644 170.546 553.042 171.242 553.66C170.722 554.482 170.214 555.312 169.719 556.15C174.074 564.226 178.321 568.668 184.188 575.665C161.064 564.467 140.869 561.29 123.623 538.945C142.312 519.156 152.508 489.025 162.694 464.764Z" fill="url(#paint2_linear_1_3)"/>
<path d="M275.782 490.48C285.406 503.832 293.091 518.564 303.115 532.077L304.538 533.705L305.119 534.388C315.541 546.435 330.959 552.567 346.667 553.928C356.027 554.738 363.688 552.361 371.449 552.513L371.834 553.258L372.944 552.842C369.882 555.309 288.878 569.332 277.148 572.308L276.929 572.9L276.158 572.816C275.659 571.794 275.257 571.008 274.691 570.023C272.54 569.777 271.936 569.861 270.114 568.641C266.695 569.803 209.363 557.886 201.467 555.951C199.034 556.357 198.169 555.547 196.391 554.146C220.175 551.76 224.762 549.808 242.332 534.235C243.965 534.427 243.139 534.449 244.849 533.614C252.002 525.504 262.851 507.319 269.612 497.44C269.994 496.611 271.338 493.293 272.392 494.395L274.871 494.583L275.278 494.056C275.242 493.363 275.3 493.751 274.955 492.795L274.655 491.988L275.782 490.48Z" fill="#3A1E79"/>
<path d="M274.871 494.583L275.278 494.056C284.461 506.151 292.276 521.349 301.856 534.245C292.106 545.209 283.83 557.338 275.094 569.03C274.524 544.536 274.82 519.142 274.871 494.583Z" fill="#141418"/>
<path d="M269.612 497.44C270.817 498.439 271.558 499.136 271.637 500.817C271.991 508.2 271.442 515.911 272.306 523.224C272.504 534.632 272.966 557.972 272.048 568.758C263.521 557.211 254.188 544.403 244.849 533.614C252.002 525.504 262.851 507.319 269.612 497.44Z" fill="#141418"/>
<path d="M201.467 555.951C205.116 554.643 209.847 554.22 213.776 553.544C226.71 551.32 234.772 544.841 243.471 535.196C250.988 544.98 261.879 559.996 270.114 568.641C266.695 569.803 209.363 557.886 201.467 555.951Z" fill="#141418"/>
<path d="M269.612 497.44C269.994 496.611 271.338 493.293 272.392 494.395C272.642 502.26 272.664 515.445 272.306 523.224C271.442 515.911 271.991 508.2 271.637 500.817C271.558 499.136 270.817 498.439 269.612 497.44Z" fill="#151124"/>
<path d="M302.811 535.519C304.075 536.35 307.536 539.658 308.849 540.853C320.875 551.784 331.083 553.348 346.65 555.851C336.109 558.574 325.439 560.765 314.678 562.412C302.06 564.515 289.504 566.975 277.025 569.791C285.342 558.419 294.949 546.674 302.811 535.519Z" fill="#141418"/>
<path d="M191.496 470.045C199.901 479.803 207.966 490.646 215.981 500.809C224.378 511.457 234.612 523.172 242.332 534.235C224.762 549.808 220.176 551.76 196.391 554.146C189.418 554.022 173.232 551.365 169.374 552.071C168.83 552.294 168.283 552.509 167.734 552.716C155.13 520.82 169.5 493.168 191.496 470.045Z" fill="#141418"/>
<path d="M183.02 518.064C183.327 518.111 186.081 520.785 186.065 520.751C186.415 518.959 182.643 524.764 182.784 524.492C181.518 521.527 179.697 521.092 179.515 520.547C181.377 520.052 181.841 519.555 183.02 518.064Z" fill="#EDC488"/>
<path d="M307.708 443.784C324.645 449.952 338.088 458.889 352.319 469.584C344.896 478.11 336.733 489.342 329.713 498.47C320.943 509.748 312.077 520.951 303.115 532.077C293.091 518.564 285.406 503.832 275.782 490.48C275.341 488.691 275.177 488.779 276.464 486.733C285.373 472.585 299.076 457.71 307.708 443.784Z" fill="#141418"/>
<path d="M167.734 552.716C168.283 552.509 168.83 552.294 169.374 552.071C170.08 552.644 170.546 553.042 171.242 553.659C170.722 554.482 170.214 555.312 169.719 556.15C168.827 555.169 168.419 553.841 167.734 552.716Z" fill="#151124"/>
<path d="M238.966 443.88L239.566 444.163C241.996 448.474 247.142 454.851 250.218 459.008C257.642 469.041 265.417 478.908 271.772 489.69C262.281 503.279 253.382 517.924 243.984 531.866C241.39 528.923 238.66 525.353 236.183 522.257C223.214 506.034 207 483.648 193.736 468.656C208.154 456.844 221.738 450.162 238.966 443.88Z" fill="#141418"/>
<path d="M241.631 443.203C257.657 438.618 271.594 436.777 288.121 439.321C291.292 439.797 294.445 440.39 297.573 441.098C300.496 441.737 303.01 442.442 305.876 443.239C296.127 457.057 285.92 470.547 275.274 483.686C274.931 485.655 273.523 486.889 272.128 484.813C263.847 475.235 256.684 462.291 248.393 452.382C246.084 449.622 243.893 446.128 241.631 443.203Z" fill="#141418"/>
<path d="M272.128 484.813C272.756 480.815 269.687 472.257 273.266 474.691C275.777 476.398 274.876 480.792 275.274 483.686C274.931 485.655 273.523 486.889 272.128 484.813Z" fill="#3A1E79"/>
<path d="M387.961 469.124C391.195 471.349 396.085 476.048 399.321 478.764C413.693 490.836 426.238 504.568 439.701 517.665L441.269 518.969L442.096 520.355C445.298 522.959 450.051 528.472 453.024 531.651C457.809 536.795 462.816 541.726 468.032 546.431C484.797 561.527 498.837 570.418 516.746 583.225C514.807 584.394 516.864 584.785 516.556 588.232C481.995 576.279 433.697 576.975 398.812 587.722C357.139 600.561 319 624.656 292.917 660.093C285.328 670.403 279.357 682.259 273.329 693.468C269.612 685.391 266.731 678.603 261.998 670.877C245.023 643.162 219.956 621.096 191.685 605.467C150.592 582.943 103.179 574.719 56.901 582.09C41.503 584.534 30.563 587.763 15.706 592.066C20.743 588.33 27.077 584.987 32.297 581.354C43.738 573.389 55.567 565.256 66.245 556.321C74.262 549.506 81.977 542.342 89.367 534.85C94.055 530.007 99.237 523.811 104.111 519.404L104.658 518.919C108.089 516.683 124.356 500.326 128.23 496.459C137.279 487.267 146.758 478.507 156.633 470.209C143.09 504.26 130.261 533.125 99.195 554.385C102.951 557.045 105.02 554.596 107.176 556.342C140.736 557.177 170.318 569.975 198.635 587.453C203.894 590.7 217.772 601.784 221.295 603.459C224.29 600.848 232.005 596.327 235.571 593.975C246.549 586.732 259.061 579.923 269.781 572.508C255.851 568.774 242.378 566.701 228.205 564.132L171.242 553.66C170.546 553.042 170.08 552.644 169.374 552.071C173.232 551.366 189.418 554.022 196.391 554.146C198.169 555.547 199.034 556.357 201.467 555.951C209.363 557.886 266.695 569.803 270.114 568.641C271.936 569.861 272.54 569.777 274.691 570.023C275.257 571.008 275.659 571.794 276.158 572.816L276.929 572.9L277.148 572.308C280.305 575.21 290.618 580.847 295.053 583.578C305.503 590.103 315.851 596.79 326.094 603.636C365.752 573.643 399.518 556.677 450.132 556.508C426.331 540.722 412.139 522.143 400.582 496.407C396.574 487.481 392.513 477.679 387.961 469.124Z" fill="url(#paint3_linear_1_3)"/>
<path d="M269.781 572.508L270.489 571.669C272.133 572.565 273.901 573.118 275.348 574.24L275.124 574.701L274.367 574.672C274.426 582.187 275.409 596.497 274.575 603.285L283.383 599.489C279.762 603.616 278.076 605.533 275.217 610.141C274.041 623.525 276.136 649.126 274.157 660.515L272.392 659.094L272.279 659.234C270.787 659.169 265.847 651.712 264.412 649.746C251.482 632.008 239.599 618.864 222.555 605.074L221.295 603.459C224.29 600.848 232.005 596.327 235.571 593.975C246.549 586.732 259.061 579.923 269.781 572.508Z" fill="#141418"/>
<path d="M269.781 572.508L270.489 571.669C272.133 572.565 273.901 573.118 275.348 574.24L275.124 574.701L274.367 574.672C274.426 582.187 275.409 596.497 274.575 603.285L283.383 599.489C279.762 603.616 278.076 605.533 275.217 610.141C274.041 623.525 276.136 649.126 274.157 660.515L272.392 659.094C271.657 643.65 273.46 624.801 270.651 610.134C270.105 607.284 266.745 604.466 264.953 602.229L265.599 601.589C268.068 601.737 269.6 602.823 271.812 603.985C271.754 594.424 271.405 582.892 271.97 573.503C258.209 583.976 234.675 595.278 222.555 605.074L221.295 603.459C224.29 600.848 232.005 596.327 235.571 593.975C246.549 586.732 259.061 579.923 269.781 572.508Z" fill="#3A1E79"/>
<path d="M274.367 574.672L275.124 574.701C292.583 584.375 307.725 594.347 324.362 605.254C309.819 616.73 300.37 625.571 288.976 640.65C284.765 646.226 278.401 655.456 274.156 660.515C276.136 649.126 274.041 623.525 275.217 610.141C278.076 605.533 279.762 603.616 283.383 599.489L274.575 603.285C275.409 596.497 274.426 582.187 274.367 574.672Z" fill="#141418"/>
<path d="M104.658 518.919C103.616 527.008 62.382 561.819 54.093 568.226C48.304 572.722 42.401 577.07 36.39 581.262C37.208 582.154 38.022 583.051 38.831 583.953C119.729 563.086 214.033 595.922 260.57 666.143C265.483 673.558 269.601 681.624 273.757 689.486C290.988 657.497 306.451 637.137 336.699 615.923C378.856 586.68 430.142 573.613 481.154 579.119C494.885 580.495 503.134 582.967 516.042 585.246C493.164 568.99 472.447 554.054 452.97 533.503C449.938 530.305 443.977 524.167 442.096 520.355C445.298 522.959 450.051 528.472 453.024 531.651C457.809 536.795 462.816 541.726 468.032 546.431C484.797 561.527 498.837 570.418 516.746 583.225C514.807 584.394 516.864 584.784 516.556 588.232C481.995 576.279 433.697 576.975 398.812 587.722C357.139 600.561 319 624.656 292.917 660.093C285.328 670.403 279.357 682.259 273.329 693.468C269.612 685.391 266.731 678.603 261.998 670.877C245.023 643.162 219.956 621.096 191.685 605.467C150.592 582.943 103.179 574.719 56.901 582.09C41.503 584.534 30.563 587.763 15.706 592.066C20.743 588.329 27.077 584.987 32.297 581.354C43.738 573.389 55.567 565.256 66.245 556.321C74.262 549.506 81.977 542.342 89.367 534.85C94.055 530.007 99.237 523.811 104.111 519.404L104.658 518.919Z" fill="#C89260"/>
<path d="M36.39 581.262C37.208 582.154 38.022 583.051 38.831 583.953C35.152 584.473 28.618 585.588 36.39 581.262Z" fill="#3A1E79"/>
<path d="M99.195 554.385C102.951 557.044 105.02 554.596 107.176 556.342C106.216 556.355 92.73 557.368 99.195 554.385Z" fill="#151124"/>
<path d="M66.783 410.419C72.871 435.454 86.63 457.746 104.893 475.82C106.829 477.736 118.732 487.153 118.648 488.837C114.974 496.577 109.123 510.141 105.114 517.245C102.288 515.281 96.332 505.703 94.311 502.493C77.462 475.711 66.848 446.244 63.507 414.723C63.734 409.288 63.36 411.587 66.783 410.419Z" fill="#3A1E79"/>
<path d="M66.783 410.419C72.871 435.454 86.63 457.746 104.893 475.82C106.829 477.736 118.732 487.153 118.648 488.837C107.838 486.947 83.607 451.446 77.511 442.682C73.943 435.49 70.604 428.477 68.25 420.792L65.493 420.177C66.283 427.139 68.376 437.868 70.529 444.576C75.616 462.248 80.844 475.496 89.719 491.75C92.623 497.067 104.113 514.054 105.114 517.245C102.288 515.281 96.332 505.703 94.311 502.493C77.462 475.711 66.848 446.244 63.507 414.723C63.734 409.288 63.36 411.587 66.783 410.419Z" fill="#A47D9B"/>
<path d="M65.493 420.177C65.05 417.558 65.247 413.687 65.315 410.996C66.4 414.515 67.319 417.21 68.25 420.792L65.493 420.177Z" fill="#493271"/>
<path d="M478.362 414.764C478.498 414.153 481.365 403.944 481.208 404.127C481.666 404.639 481.673 405.85 482.382 406.403L482.592 406.394C483.186 405.486 482.401 403.999 483.1 402.944C483.201 402.993 483.303 403.042 483.404 403.091L483.262 403.978L483.497 404.168C482.573 417.523 481.048 429.079 478.099 442.187L477.449 444.877L476.462 448.857C476.208 449.896 475.463 451.863 475.084 452.956C470.732 469.471 462.519 485.371 453.479 499.806C451.246 503.372 443.822 513.86 442.474 516.776C442.027 516.811 441.291 516.825 440.815 516.974C437.436 510.965 431.23 493.725 428.514 486.66C455.201 467.09 468.396 445.675 478.362 414.764Z" fill="#2F1D64"/>
<path d="M478.362 414.764C478.498 414.153 481.365 403.944 481.208 404.127C481.666 404.639 481.673 405.85 482.382 406.403L482.592 406.394C483.186 405.486 482.401 403.999 483.1 402.944C483.201 402.993 483.303 403.042 483.404 403.091L483.262 403.978L483.497 404.168C482.573 417.523 481.048 429.079 478.099 442.187L477.449 444.877L476.462 448.857C476.208 449.896 475.463 451.863 475.084 452.956C474.423 446.771 479.929 431.697 479.925 424.623C479.924 422.321 481.329 414.004 478.362 414.764Z" fill="#2B2045"/>
<path d="M274.282 25.721C274.208 35.432 275.557 56.131 277.087 65.638C283.535 59.548 288.568 55.386 295.181 49.636L295.688 50.979C290.355 56.465 285.101 62.928 280.119 68.793C284.81 69.413 312.962 71.842 316.789 71.508C317.497 72.031 318.208 72.513 318.932 73.014C313.076 72.721 286.835 75.01 280.449 76.118C286.646 83.536 293.27 90.521 299.548 97.842C292.826 93.453 284.145 85.594 277.452 80.343C276.327 87.081 275.023 93.686 274.713 100.503L274.667 101.367C273.772 102.734 273.77 103.303 273.551 104.922L273.294 103.364L272.516 102.914L271.891 101.537C271.359 94.224 270.978 86.617 269.744 79.411C264.523 83.607 259.364 87.881 254.272 92.233L252.466 91.566C257.283 86.31 262.276 80.998 266.862 75.556C256.071 74.893 242.743 73.075 232.701 72.817L233.141 71.577C237.688 71.789 261.04 69.305 266.165 68.704C262.52 63.647 251.323 51.562 249.292 47.991C251.801 49.535 266.055 62.401 269.329 65.202C270.509 56.405 273.098 35.073 272.97 27.128L274.282 25.721Z" fill="#EDC488"/>
<path d="M118.204 361.68C124.446 360.714 120.193 362.915 117.736 364.128C109.797 371.468 107.544 382.399 116.54 390.553C122.027 395.525 128.492 393.941 135.167 393.104C101.341 423.191 81.255 363.838 118.204 361.68Z" fill="#EDC488"/>
<path d="M432.149 362.048C432.865 362 438.184 361.438 438.373 362.253C434.94 365.029 433.83 364.531 430.977 368.875C425.715 376.457 428.537 387.048 436.434 391.588C442.593 395.128 445.933 394.116 452.284 392.685C449.473 396.142 449.064 396.694 445.173 399.188C416.088 411.503 403.449 369.443 432.149 362.048Z" fill="#EDC488"/>
<path d="M442.751 610.771C440.675 608.104 438.873 606.087 436.698 603.535C438.209 604.585 443.338 608.985 444.795 608.353C445.771 608.115 446.521 607.926 447.481 607.635C447.727 607.929 447.973 608.367 448.373 608.444C448.702 608.333 448.506 608.419 448.933 608.125L450.684 609.51C449.355 612.22 457.569 612.013 458.991 611.888L460.126 613.371C458.332 613.351 449.08 612.668 450.653 615.821L450.413 617.834C449.442 616.972 448.764 616.413 447.743 615.64C446.438 616.504 446.494 616.541 445.007 616.89C443.74 615.879 443.613 616.121 442.27 616.994L440.538 617.324C440.776 616.906 441.773 615.275 441.746 615.094C441.495 613.459 431.201 612.967 429.93 612.778C434.226 612.041 438.449 611.427 442.751 610.771Z" fill="#EDC488"/>
<path d="M104.016 608.967C104.678 608.564 106.876 606.864 107.573 606.883C107.964 607.253 106.642 608.944 106.536 609.106C106.13 609.739 105.719 610.368 105.304 610.994C110.434 611.765 113.965 612.002 119 612.579L107.28 613.976C105.192 614.223 106.016 615.244 106.722 616.492L106.167 617.264C105.127 616.812 105.048 616.72 103.987 616.566C102.345 616.712 102.279 616.832 100.741 616.376C97.458 617.446 96.414 618.783 93.562 620.913C95.382 618.813 97.007 616.819 98.776 614.693C95.226 613.794 94.067 613.404 90.369 613.21L90.583 612.085C91.555 611.934 97.711 611.192 98.097 610.45C98.089 610.268 98.114 610.394 97.943 610.028L99.05 608.619L99.875 608.939C101.788 609.358 101.983 609.189 104.016 608.967Z" fill="#EDC488"/>
<path d="M92.28 224.107C100.595 222.394 95.267 221.277 94.795 218.697L94.893 218.559C96.507 219.246 96.805 220.004 98.492 219.75L98.927 219.451C99.823 219.655 100.872 220.062 101.755 220.37C102.643 220.104 104.674 219.049 105.179 219.105C106.366 220.086 101.656 221.914 103.981 223.333C103.743 223.592 103.504 223.85 103.264 224.11C103.216 224.224 103.168 224.34 103.121 224.455C103.287 224.726 103.454 224.998 103.622 225.269C103.66 225.322 103.698 225.375 103.737 225.426C103.956 226.953 105.219 228.373 105.235 229.11C104.681 229.849 103.195 226.972 101.115 228.7C100.129 229.112 100.105 229.276 99.14 229.15C95.788 227.255 96.45 230.513 94.868 229.589C94.785 228.572 96.877 226.666 96.256 226.141C95.004 225.079 92.316 225.25 90.78 225.221L92.28 224.107Z" fill="#F5BE70"/>
<path d="M496.157 521.716C496.273 521.878 496.843 522.666 496.907 522.831C497.892 525.972 500.257 526.669 502.649 528.343C503.129 528.678 498.44 531.31 497.042 533.847L495.889 535.919C494.845 533.542 494.366 530.009 491.259 529.456C490.136 529.255 488.338 528.308 490.237 527.655C493.692 526.467 494.573 524.774 496.157 521.716Z" fill="#F5BE70"/>
<path d="M442.504 223.416C443.529 220.489 441.196 219.916 441.689 219.155C443.058 219.209 443.042 220.787 445.587 220.332C446.388 220.431 447.32 220.663 448.126 220.842L449.541 220.576L450.186 221.782C450.293 222.827 450.341 222.769 450.808 223.811C450.69 224.441 450.573 225.071 450.454 225.7C450.714 226.307 452.418 230.169 452.253 230.55C451.957 230.716 449.919 228.745 448.129 228.375C446.657 228.193 445.898 228.078 444.404 228.291L443.827 228.549L442.49 227.268L442.304 225.899C442.386 225.128 442.528 224.177 442.504 223.416Z" fill="#F5BE70"/>
<path d="M50.879 521.751C52.328 523.773 52.686 525.88 55.096 527.283C55.926 527.765 57.612 528.954 55.775 529.546C52.634 530.558 51.944 533.802 50.543 536.517C47.108 527.94 49.686 532.422 43.951 528.551C43.956 528.53 43.953 528.504 43.966 528.484C44.185 528.116 44.965 527.897 45.329 527.784C45.716 527.663 46.115 527.58 46.494 527.436C49.03 526.473 49.865 524.045 50.879 521.751Z" fill="#F5BE70"/>
<path d="M268.064 707.292C272.848 706.121 268.372 705.047 268.648 703.148C269.9 702.54 270.532 706.091 273.142 704.481L274.259 704.358C276.215 706.128 276.493 703.591 278.289 703.47C279.121 703.414 277.237 706.848 277.116 707.094C277.442 707.632 277.455 708.32 277.55 708.968C276.267 711.206 279.124 712.55 278.273 713.662C277.573 713.536 276.287 711.731 275.016 711.066C274.067 711.232 273.116 711.382 272.164 711.518C271.774 711.671 269.844 712.617 269.623 712.549C268.271 712.137 271.684 710.061 269.225 709.224L268.488 708.955C268.333 708.383 268.188 707.872 268.064 707.292Z" fill="#F5BE70"/>
<path d="M404.755 325.211L404.929 325.631C405.663 327.369 405.937 329.045 407.178 330.455C407.68 331.026 413.072 333.248 409.737 333.699C405.694 334.246 406.371 336.613 405.327 340.158C403.042 336.694 404.12 334.919 399.588 333.387C398.878 333.148 399.841 332.118 400.284 331.89C404.218 329.858 403.612 328.762 404.755 325.211Z" fill="#3A1E79"/>
<path d="M145.59 325.802C147.165 327.202 147.326 329.196 148.933 329.907C152.749 331.599 148.383 333.145 145.883 338.044C143.13 333.364 144.233 334.686 139.314 331.523C142.7 329.778 143.303 330.066 145.091 326.724L145.59 325.802Z" fill="#3A1E79"/>
<path d="M62.552 389.986L63.893 389.671C63.96 395.744 65.562 404.483 66.783 410.419C63.36 411.587 63.734 409.288 63.507 414.722C62.569 410.066 62.741 395.265 62.552 389.986Z" fill="#C89260"/>
<path d="M516.555 588.233C516.864 584.785 514.807 584.394 516.746 583.225C519.622 584.743 523.397 587.183 526.087 589.026C526.513 589.293 529.229 590.689 528.856 591.503C528.113 592.019 524.154 590.51 523.109 590.213L522.646 590.065C520.656 589.418 518.585 588.744 516.555 588.233Z" fill="#DAAA73"/>
<path d="M98.492 219.75C98.437 218.353 98.277 208.683 99.272 208.089C99.689 208.319 99.537 208.155 99.738 208.572L99.267 208.767L99.917 209.213C100.01 210.215 100.107 211.217 100.204 212.218C100.606 214.765 101.111 217.897 101.755 220.37C100.872 220.062 99.823 219.655 98.927 219.451L98.492 219.75Z" fill="#DAAA73"/>
<path d="M98.492 219.75C98.437 218.353 98.277 208.683 99.272 208.089C99.689 208.319 99.537 208.155 99.738 208.572L99.267 208.767L99.917 209.213C100.01 210.215 100.107 211.217 100.204 212.218C98.511 212.612 98.979 217.815 98.927 219.451L98.492 219.75Z" fill="#5A4C3D"/>
<path d="M444.935 604.768C444.981 602.959 444.578 596.306 445.826 595.34C446.263 596.727 446.538 600.738 446.618 602.229C446.854 604.248 447.084 605.649 447.481 607.635C446.521 607.926 445.771 608.115 444.795 608.353C444.856 607.137 444.919 605.986 444.935 604.768Z" fill="#716046"/>
<path d="M444.935 604.768C445.419 603.622 445.439 602.261 446.618 602.229C446.854 604.248 447.084 605.649 447.481 607.635C446.521 607.926 445.771 608.115 444.795 608.353C444.856 607.137 444.919 605.986 444.935 604.768Z" fill="#DAAA73"/>
<path d="M394.638 135.08C394.741 135.11 394.843 135.141 394.947 135.172C395.015 135.275 395.083 135.377 395.149 135.48C395.043 137.452 398.081 136.855 397.882 137.957C396.917 139.122 396.08 138.795 394.455 141.057C393.607 140.681 393.372 139.65 392.685 139.304C389.256 137.571 392.743 137.515 394.638 135.08Z" fill="#F5BE70"/>
<path d="M377 647.305C379.858 650.043 381.31 650.506 378.326 652.342L377.476 652.949C376.268 654.069 375.269 651.538 374.479 650.669C374.249 650.416 376.263 648.294 376.549 647.915L377 647.305Z" fill="#F5BE70"/>
<path d="M100.741 616.376C102.279 616.832 102.345 616.712 103.987 616.566C102.769 619.662 102.685 624.709 101.7 629.004C101.424 625.821 101.202 618.867 100.741 616.376Z" fill="#DAAA73"/>
<path d="M102.321 601.299C102.934 603.845 103.385 606.378 104.016 608.967C101.983 609.189 101.788 609.357 99.875 608.939C101.045 606.189 100.97 604.602 101.109 601.565L102.321 601.299Z" fill="#F5BE70"/>
<path d="M364.179 517.547C364.642 518.246 364.948 518.976 365.565 519.561C365.535 519.743 366.666 520.319 366.509 520.681C366.239 521.3 364.834 521.903 364.754 522.828C364.745 522.916 364.24 524.409 364.198 524.536C363.601 522.776 363.265 522.013 361.611 521.037C361.491 520.965 361.32 520.57 361.38 520.447C361.937 519.298 363.258 518.405 364.179 517.547Z" fill="#EDC488"/>
<path d="M170.246 647.557C173.279 651.755 173.421 649.977 170.01 653.476C166.28 649.821 166.876 651.264 170.246 647.557Z" fill="#F5BE70"/>
<path d="M444.404 228.291C445.898 228.078 446.658 228.193 448.129 228.375C447.408 231.007 446.892 234.025 447.001 236.762L445.337 236.318C445.72 233.849 446.273 230.137 444.404 228.291Z" fill="#C89260"/>
<path d="M446.258 212.289L447.615 212.66C447.471 215.924 447.669 217.616 448.126 220.842C447.32 220.663 446.388 220.431 445.587 220.332C445.733 217.533 446.099 215.066 446.258 212.289Z" fill="#EDC488"/>
<path d="M445.007 616.89C446.494 616.541 446.438 616.504 447.743 615.64C446.945 619.223 446.843 620.296 446.833 624.097L445.553 625.38C445.515 622.338 445.23 619.895 445.007 616.89Z" fill="#DAAA73"/>
<path d="M450.808 223.811C453.791 223.954 456.343 224.029 459.334 224.019L458.887 225.469C455.555 225.177 453.793 225.376 450.454 225.7C450.573 225.071 450.69 224.441 450.808 223.811Z" fill="#EDC488"/>
<path d="M103.981 223.333C106.817 223.721 107.689 224.024 110.566 224.025L111.797 225.273C109.047 225.201 106.489 225.396 103.737 225.426C103.698 225.375 103.66 225.322 103.622 225.269C103.454 224.998 103.287 224.726 103.121 224.455C103.168 224.34 103.216 224.224 103.264 224.11C103.504 223.85 103.743 223.592 103.981 223.333Z" fill="#DAAA73"/>
<path d="M101.115 228.7C100.913 232.525 100.707 235.586 100.339 239.424C99.707 235.523 99.184 233.116 99.14 229.15C100.105 229.276 100.129 229.112 101.115 228.7Z" fill="#DAAA73"/>
<path d="M232.701 72.817C231.459 72.872 224.388 72.932 223.715 72.297C223.72 72.222 223.727 72.149 223.733 72.075C225.007 71.53 231.445 71.488 233.141 71.577L232.701 72.817Z" fill="#5A4C3D"/>
<path d="M272.164 711.518C273.116 711.382 274.067 711.232 275.016 711.066C274.416 713.787 274.131 715.833 273.307 718.495L272.164 711.518Z" fill="#DAAA73"/>
<path d="M273.626 15.964C274.315 19.853 274.44 21.669 274.282 25.721L272.97 27.128C272.863 23.024 273.268 20.022 273.626 15.964Z" fill="#5A4C3D"/>
<path d="M252.466 91.566L254.272 92.233C251.297 94.85 249.178 96.409 245.983 98.735C248.009 96.389 250.27 93.733 252.466 91.566Z" fill="#A6875B"/>
<path d="M438.875 224.012C440.716 223.939 440.719 223.98 442.504 223.416C442.528 224.177 442.386 225.128 442.304 225.899C439.716 225.435 438.435 225.417 435.842 225.304L438.875 224.012Z" fill="#DAAA73"/>
<path d="M268.488 708.955C266.896 709.021 264.953 709.089 263.391 708.919C263.126 708.793 262.861 708.666 262.597 708.54C262.574 708.346 262.562 708.443 262.642 708.25C263.372 707.675 266.778 707.492 268.064 707.292C268.188 707.872 268.333 708.383 268.488 708.955Z" fill="#A6875B"/>
<path d="M90.78 225.221C89.72 225.271 86.085 225.498 85.51 224.944C84.185 223.664 92.106 224.096 92.28 224.107L90.78 225.221Z" fill="#716046"/>
<path d="M446.832 624.097C446.846 624.804 447.265 630.491 446.024 630.233L445.813 629.751L445.788 629.771C445.451 628.454 445.535 626.742 445.553 625.38L446.832 624.097Z" fill="#5A4C3D"/>
<path d="M435.842 225.304C434.149 225.342 433.475 225.48 431.975 224.951L431.97 224.867L431.928 224.866C432.277 223.777 437.842 224.005 438.875 224.012L435.842 225.304Z" fill="#716046"/>
<path d="M277.116 707.094C279.214 707.487 280.285 707.676 282.418 707.864L282.3 709.116L277.55 708.968C277.455 708.32 277.442 707.632 277.116 707.094Z" fill="#EDC488"/>
<path d="M110.566 224.025C116.096 223.847 119.927 225.366 111.797 225.273L110.566 224.025Z" fill="#5A4C3D"/>
<path d="M295.181 49.636C300.53 44.417 300.259 46.725 295.688 50.979L295.181 49.636Z" fill="#A6875B"/>
<path d="M101.144 596.354L102.526 596.854C102.341 598.655 102.302 599.495 102.321 601.299L101.109 601.565C101.023 599.632 101.061 598.297 101.144 596.354Z" fill="#A6875B"/>
<path d="M519.73 272.22C520.258 271.791 521.019 271.803 521.533 272.252C522.046 272.7 522.16 273.452 521.805 274.034C521.515 274.508 520.971 274.766 520.421 274.689C519.869 274.613 519.417 274.217 519.267 273.68C519.117 273.145 519.298 272.572 519.73 272.22Z" fill="#C89260"/>
<path d="M482.369 357.908C482.58 358.833 483.291 363.401 482.454 363.926L482.292 363.761L482.539 363.6L481.947 362.997C481.545 361.044 481.494 360.782 481.446 358.864L482.369 357.908Z" fill="#5A4C3D"/>
<path d="M449.541 220.576C450.487 219.552 451.172 219.077 452.295 218.213L452.154 218.311L453.022 217.854C453.283 217.879 453.187 217.836 453.332 217.951C453.43 218.695 450.739 221.211 450.186 221.782L449.541 220.576Z" fill="#A6875B"/>
<path d="M97.943 610.028C97.439 609.31 95.097 606.604 95.229 605.915C95.272 605.893 95.314 605.87 95.355 605.848L95.423 605.91L95.504 605.816L95.532 605.828L95.665 606.464L96.438 606.267C97.414 607.216 98.158 607.702 99.05 608.619L97.943 610.028Z" fill="#DAAA73"/>
<path d="M442.474 516.776C442.772 516.896 443.077 516.918 443.203 517.179C441.994 518.31 442.362 517.096 441.269 518.969L439.701 517.665L440.815 516.974C441.291 516.825 442.027 516.811 442.474 516.776Z" fill="#050407"/>
<path d="M272.802 700.917L274.498 699.809C274.383 701.323 274.304 702.84 274.259 704.358L273.142 704.481L272.802 700.917Z" fill="#C89260"/>
<path d="M62.552 389.986C62.552 389.38 62.318 385.53 63.031 385.156C63.82 385.558 63.675 387.067 63.733 387.776L63.893 389.671L62.552 389.986Z" fill="#5A4C3D"/>
<path d="M442.49 227.268L443.827 228.549C443.09 229.101 442.373 229.688 441.53 230.103C441.337 230.197 440.414 230.492 440.383 229.974C440.351 229.473 440.933 229.09 441.151 228.726C441.597 228.239 442.044 227.754 442.49 227.268Z" fill="#DAAA73"/>
<path d="M316.789 71.508C317.626 71.514 320.663 71.38 321.357 72.011C321.438 72.084 321.469 72.197 321.437 72.301C321.357 72.555 320.798 72.69 320.59 72.765C320.599 72.762 318.915 73.016 318.932 73.014C318.208 72.513 317.497 72.031 316.789 71.508Z" fill="#716046"/>
<path d="M446.258 212.289C446.239 211.502 446.068 208.782 446.568 208.241C447.362 208.969 447.5 211.641 447.615 212.66L446.258 212.289Z" fill="#716046"/>
<path d="M448.933 608.125L450.629 607.028C453.16 605.377 452.003 607.536 451.22 608.709L450.684 609.51L448.933 608.125Z" fill="#DAAA73"/>
<path d="M440.538 617.324L442.27 616.994C441.791 617.468 439.074 620.65 438.37 619.981L438.518 619.945C438.459 618.616 439.459 617.982 440.538 617.324Z" fill="#A6875B"/>
<path d="M450.653 615.821C451.137 616.464 453.3 619.096 453.232 619.829C452.438 620.268 450.818 618.253 450.413 617.835L450.653 615.821Z" fill="#C89260"/>
<path d="M106.722 616.492C110.561 620.731 108.752 620.857 106.167 617.264L106.722 616.492Z" fill="#A6875B"/>
<path d="M459.334 224.019C459.959 224.025 461.946 223.801 462.098 224.561C461.453 225.319 459.818 225.337 458.887 225.469L459.334 224.019Z" fill="#A6875B"/>
<path d="M445.337 236.318L447.001 236.762C446.346 241.154 445.735 239.779 445.337 236.318Z" fill="#716046"/>
<path d="M272.802 700.917C272.9 700.267 273.044 697.518 273.842 697.256C274.198 698.054 274.177 697.57 274.337 698.766L274.498 699.809L272.802 700.917Z" fill="#5A4C3D"/>
<path d="M88.462 611.866L90.583 612.085L90.369 613.21C89.403 613.346 88.434 613.467 87.464 613.574L88.462 611.866Z" fill="#A6875B"/>
<path d="M101.144 596.354L101.085 595.365C101.482 591.706 102.28 595.719 102.526 596.854L101.144 596.354Z" fill="#5A4C3D"/>
<path d="M458.99 611.888C460.589 612.162 461.922 612.664 463.313 612.95C462.803 613.273 460.758 613.311 460.126 613.371L458.99 611.888Z" fill="#A6875B"/>
<path d="M87.464 613.574C86.895 613.457 85.932 613.487 85.539 612.953C85.692 612.295 86.919 612.172 87.512 612.06L88.462 611.866L87.464 613.574Z" fill="#5A4C3D"/>
<path d="M282.418 707.864C282.952 707.906 284.075 707.777 284.363 708.399C284.087 709.084 282.863 709.039 282.3 709.116L282.418 707.864Z" fill="#8B6045"/>
</g>
<defs>
<linearGradient id="paint0_linear_1_3" x1="366.286" y1="341.739" x2="156.112" y2="365.995" gradientUnits="userSpaceOnUse">
<stop stop-color="#2E1E60"/>
<stop offset="1" stop-color="#4A2098"/>
</linearGradient>
<linearGradient id="paint1_linear_1_3" x1="276.686" y1="218.925" x2="258.559" y2="213.89" gradientUnits="userSpaceOnUse">
<stop stop-color="#020102"/>
<stop offset="1" stop-color="#161924"/>
</linearGradient>
<linearGradient id="paint2_linear_1_3" x1="394.462" y1="466.609" x2="133.925" y2="563.107" gradientUnits="userSpaceOnUse">
<stop stop-color="#311E66"/>
<stop offset="1" stop-color="#4C2199"/>
</linearGradient>
<linearGradient id="paint3_linear_1_3" x1="503.483" y1="549.422" x2="38.395" y2="597.328" gradientUnits="userSpaceOnUse">
<stop stop-color="#2D1D5E"/>
<stop offset="1" stop-color="#4E229E"/>
</linearGradient>
<clipPath id="clip0_1_3">
<rect width="559" height="737" fill="white"/>
</clipPath>
</defs>
</svg>
